<svg width="24.000000" height="24.000000" viewBox="0 0 24 24" fill="none" xmlns="http://www.w3.org/2000/svg" xmlns:xlink="http://www.w3.org/1999/xlink">
	<desc>
			Created with Pixso.
	</desc>
	<defs>
		<clipPath id="clip7_80627">
			<rect id="Icon robot" width="18.000000" height="16.000000" transform="translate(3.000000 3.000000)" fill="white" fill-opacity="0"/>
		</clipPath>
		<clipPath id="clip7_80636">
			<rect id="Name=Robot,State=Default" rx="12.000000" width="24.000000" height="24.000000" fill="white" fill-opacity="0"/>
		</clipPath>
	</defs>
	<rect id="Name=Robot,State=Default" rx="12.000000" width="24.000000" height="24.000000" fill="#919294" fill-opacity="1.000000"/>
	<g clip-path="url(#clip7_80636)">
		<g clip-path="url(#clip7_80627)">
			<path id="Vector" d="M4 6.75L4.02 6.77L4.97 6.77L5 6.75C5 6.46 4.77 6.25 4.5 6.25C4.22 6.25 4 6.46 4 6.75ZM15.5 17.75L8.5 17.75C7.11 17.75 6 16.63 6 15.25L6 14.75L4.5 14.75C3.94 14.75 3.5 14.3 3.5 13.75L3.5 11.25C3.5 10.69 3.94 10.25 4.5 10.25L6 10.25L6 9.75C6 8.36 7.11 7.25 8.5 7.25L16 7.25C18 7.25 18 9.18 18 9.75L18 10.25L19.5 10.25C20.05 10.25 20.5 10.69 20.5 11.25L20.5 13.75C20.5 14.3 20.05 14.75 19.5 14.75L18 14.75L18 15.25C18 16.63 16.88 17.75 15.5 17.75Z" fill="#FFFFFF" fill-opacity="1.000000" fill-rule="evenodd"/>
			<path id="Vector" d="M8.5 17.75C7.11 17.75 6 16.63 6 15.25L6 14.75L6 10.25L6 9.75C6 8.36 7.11 7.25 8.5 7.25L16 7.25C18 7.25 18 9.18 18 9.75L18 10.25L18 14.75L18 15.25C18 16.63 16.88 17.75 15.5 17.75L8.5 17.75ZM6 14.75L4.5 14.75C3.94 14.75 3.5 14.3 3.5 13.75L3.5 11.25C3.5 10.69 3.94 10.25 4.5 10.25L6 10.25M18 10.25L19.5 10.25C20.05 10.25 20.5 10.69 20.5 11.25L20.5 13.75C20.5 14.3 20.05 14.75 19.5 14.75L18 14.75M8.5 7.25C8.5 7.25 13.26 7.25 16 7.25M4.5 10.25L4.5 6.75M4.25 4.75C4.25 4.61 4.36 4.5 4.5 4.5C4.63 4.5 4.75 4.61 4.75 4.75C4.75 4.88 4.63 5 4.5 5C4.36 5 4.25 4.88 4.25 4.75Z" stroke="#FFFFFF" stroke-opacity="1.000000" stroke-width="1.000000"/>
			<path id="Vector" d="M14.5 11L14.5 12M9.5 11L9.5 12M10 14.25C10 14.25 11 14.75 12 14.75C13 14.75 14 14.25 14 14.25" stroke="#919294" stroke-opacity="1.000000" stroke-width="1.000000"/>
		</g>
	</g>
</svg>
