<svg width="32.000000" height="32.000000" viewBox="0 0 32 32" fill="none" xmlns="http://www.w3.org/2000/svg" xmlns:xlink="http://www.w3.org/1999/xlink">
	<desc>
			Created with Pixso.
	</desc>
	<defs>
		<clipPath id="clip19_92541">
			<rect id="Chat / support" width="32.000000" height="32.000000" fill="white" fill-opacity="0"/>
		</clipPath>
	</defs>
	<rect id="Chat / support" width="32.000000" height="32.000000" fill="#FFFFFF" fill-opacity="0"/>
	<g clip-path="url(#clip19_92541)">
		<path id="Vector" d="M21.02 7.15C21.33 7.33 21.69 7.37 22.03 7.28C22.37 7.19 22.66 6.97 22.84 6.66C22.98 6.4 23.21 6.2 23.48 6.09C23.75 5.98 24.05 5.95 24.34 6.03C24.62 6.11 24.88 6.28 25.06 6.51C25.23 6.75 25.33 7.03 25.33 7.33C25.33 7.68 25.19 8.02 24.94 8.27C24.69 8.52 24.35 8.66 24 8.66C23.64 8.66 23.3 8.8 23.05 9.05C22.8 9.3 22.66 9.64 22.66 9.99C22.66 10.35 22.8 10.69 23.05 10.94C23.3 11.19 23.64 11.33 24 11.33C24.7 11.33 25.39 11.14 25.99 10.79C26.6 10.44 27.11 9.93 27.46 9.33C27.81 8.72 27.99 8.03 27.99 7.33C27.99 6.62 27.81 5.94 27.46 5.33C27.1 4.72 26.6 4.21 25.99 3.86C25.38 3.51 24.69 3.33 23.99 3.33C23.29 3.33 22.6 3.51 21.99 3.86C21.38 4.22 20.88 4.72 20.53 5.33C20.44 5.48 20.38 5.65 20.36 5.82C20.34 6 20.35 6.17 20.39 6.34C20.44 6.51 20.52 6.67 20.63 6.81C20.73 6.95 20.87 7.07 21.02 7.15Z" fill="#FFFFFF" fill-opacity="1.000000" fill-rule="evenodd"/>
		<path id="Vector" d="M24.5 12.75C24.26 12.65 23.99 12.62 23.73 12.66L23.49 12.74L23.25 12.86L23.05 13.03C22.93 13.16 22.83 13.3 22.77 13.46C22.69 13.63 22.65 13.81 22.66 13.99C22.66 14.17 22.69 14.35 22.76 14.51C22.82 14.67 22.92 14.82 23.05 14.94C23.17 15.07 23.32 15.16 23.48 15.23C23.65 15.3 23.82 15.33 24 15.33C24.35 15.33 24.69 15.19 24.94 14.94C25.19 14.69 25.33 14.35 25.33 13.99C25.33 13.82 25.3 13.65 25.22 13.49C25.08 13.17 24.82 12.91 24.5 12.77L24.5 12.75Z" fill="#FFFFFF" fill-opacity="1.000000" fill-rule="evenodd"/>
		<path id="Vector" d="M25.77 16.93C26.05 16.71 26.4 16.62 26.76 16.66C26.93 16.68 27.1 16.74 27.25 16.83C27.4 16.92 27.54 17.04 27.64 17.18C27.75 17.32 27.83 17.48 27.87 17.65C27.92 17.82 27.93 17.99 27.9 18.17C27.53 21.07 26.12 23.73 23.93 25.66C21.74 27.6 18.92 28.66 16 28.66L5.33 28.66C5.07 28.66 4.81 28.58 4.59 28.43C4.37 28.29 4.2 28.08 4.1 27.84C4 27.59 3.97 27.32 4.02 27.07C4.07 26.81 4.2 26.57 4.38 26.38L6.66 24.14C5.26 22.38 4.38 20.26 4.12 18.02C3.87 15.78 4.25 13.51 5.22 11.48C6.2 9.44 7.72 7.73 9.63 6.52C11.53 5.32 13.74 4.67 16 4.66C16.35 4.66 16.69 4.8 16.94 5.05C17.19 5.3 17.33 5.64 17.33 5.99C17.33 6.35 17.19 6.69 16.94 6.94C16.69 7.19 16.35 7.33 16 7.33C14.15 7.33 12.35 7.88 10.82 8.91C9.29 9.94 8.1 11.39 7.4 13.09C6.69 14.8 6.51 16.67 6.87 18.48C7.22 20.28 8.11 21.94 9.41 23.25C9.66 23.5 9.8 23.84 9.8 24.19C9.8 24.54 9.66 24.88 9.41 25.13L8.54 25.99L16 25.99C18.27 26 20.47 25.16 22.18 23.66C23.89 22.15 24.98 20.07 25.26 17.81C25.31 17.46 25.49 17.14 25.77 16.93Z" fill="#858EEE" fill-opacity="1.000000" fill-rule="evenodd"/>
	</g>
</svg>
