<svg width="24.000000" height="24.000000" viewBox="0 0 24 24" fill="none" xmlns="http://www.w3.org/2000/svg" xmlns:xlink="http://www.w3.org/1999/xlink">
	<desc>
			Created with Pixso.
	</desc>
	<defs>
		<clipPath id="clip7_80533">
			<rect id="Asset 1 1" width="17.142859" height="17.142859" transform="translate(3.428711 3.428589)" fill="white" fill-opacity="0"/>
		</clipPath>
		<clipPath id="clip7_80531">
			<rect id="Name=TG,State=Hover" rx="12.000000" width="24.000000" height="24.000000" fill="white" fill-opacity="0"/>
		</clipPath>
	</defs>
	<rect id="Name=TG,State=Hover" rx="12.000000" width="24.000000" height="24.000000" fill="#FFFFFF" fill-opacity="0"/>
	<g clip-path="url(#clip7_80531)">
		<rect id="Rectangle" rx="4.000000" width="24.000000" height="24.000000" fill="#2AABEE" fill-opacity="1.000000"/>
		<rect id="Asset 1 1" width="17.142859" height="17.142859" transform="translate(3.428711 3.428589)" fill="#FFFFFF" fill-opacity="0"/>
		<g clip-path="url(#clip7_80533)">
			<path id="Vector" d="M7.19 13.25L8.88 17.93C8.88 17.93 9.09 18.37 9.32 18.37C9.55 18.37 12.92 14.86 12.92 14.86L16.67 7.62L7.25 12.04L7.19 13.25Z" fill="#E3E7EC" fill-opacity="1.000000" fill-rule="nonzero"/>
			<path id="Vector" d="M9.43 14.45L9.11 17.9C9.11 17.9 8.97 18.96 10.03 17.9C11.09 16.85 12.1 16.03 12.1 16.03L9.43 14.45Z" fill="#C2C2C6" fill-opacity="1.000000" fill-rule="nonzero"/>
			<path id="Vector" d="M7.22 13.41L3.73 12.28C3.73 12.28 3.32 12.11 3.45 11.73C3.48 11.65 3.53 11.58 3.7 11.46C4.47 10.93 17.99 6.07 17.99 6.07C17.99 6.07 18.37 5.94 18.6 6.02C18.65 6.04 18.7 6.07 18.74 6.12C18.78 6.16 18.81 6.21 18.82 6.27C18.85 6.37 18.86 6.47 18.85 6.58C18.85 6.67 18.84 6.75 18.83 6.88C18.75 8.21 16.29 18.12 16.29 18.12C16.29 18.12 16.14 18.7 15.61 18.72C15.48 18.73 15.35 18.7 15.23 18.66C15.11 18.61 15 18.54 14.9 18.45C13.87 17.56 10.29 15.15 9.49 14.62C9.48 14.61 9.46 14.59 9.45 14.57C9.44 14.56 9.43 14.53 9.43 14.51C9.42 14.46 9.48 14.39 9.48 14.39C9.48 14.39 15.72 8.84 15.88 8.26C15.9 8.22 15.85 8.19 15.78 8.21C15.37 8.37 8.19 12.9 7.39 13.4C7.34 13.42 7.28 13.42 7.22 13.41Z" fill="#FFFFFF" fill-opacity="1.000000" fill-rule="nonzero"/>
		</g>
	</g>
</svg>
