<svg width="24.000000" height="24.000000" viewBox="0 0 24 24" fill="none" xmlns="http://www.w3.org/2000/svg" xmlns:xlink="http://www.w3.org/1999/xlink">
	<desc>
			Created with Pixso.
	</desc>
	<defs>
		<clipPath id="clip7_80522">
			<rect id="Name=whatsapp,State=Default" width="24.000000" height="24.000000" fill="white" fill-opacity="0"/>
		</clipPath>
	</defs>
	<g clip-path="url(#clip7_80522)">
		<path id="Vector" d="M0.1 11.89C0.09 13.98 0.64 16.03 1.69 17.83L0 24L6.33 22.34C8.08 23.29 10.04 23.79 12.04 23.79L12.05 23.79C18.63 23.79 23.99 18.45 24 11.9C24 8.72 22.75 5.73 20.5 3.48C18.24 1.24 15.24 0 12.04 0C5.46 0 0.1 5.33 0.1 11.89Z" fill="#919294" fill-opacity="1.000000" fill-rule="nonzero"/>
		<path id="Vector" d="M8.95 6.73C8.72 6.22 8.48 6.21 8.26 6.2C8.08 6.19 7.87 6.19 7.66 6.19C7.46 6.19 7.12 6.27 6.84 6.58C6.56 6.89 5.76 7.63 5.76 9.15C5.76 10.66 6.87 12.13 7.02 12.33C7.18 12.54 9.16 15.74 12.3 16.98C14.92 18 15.45 17.8 16.02 17.75C16.58 17.7 17.85 17 18.1 16.29C18.36 15.57 18.36 14.95 18.28 14.82C18.21 14.69 18 14.62 17.69 14.46C17.38 14.31 15.86 13.56 15.58 13.46C15.29 13.36 15.09 13.31 14.88 13.62C14.68 13.92 14.08 14.62 13.9 14.82C13.72 15.03 13.54 15.05 13.23 14.9C12.92 14.74 11.93 14.42 10.74 13.37C9.83 12.55 9.2 11.55 9.02 11.24C8.84 10.93 9 10.76 9.16 10.61C9.3 10.47 9.47 10.25 9.62 10.07C9.78 9.89 9.83 9.76 9.93 9.56C10.04 9.35 9.98 9.17 9.91 9.02C9.83 8.86 9.23 7.34 8.95 6.73Z" fill="#FFFFFF" fill-opacity="1.000000" fill-rule="evenodd"/>
	</g>
</svg>
