<svg width="24" height="24" fill="none" xmlns="http://www.w3.org/2000/svg"><defs><clipPath id="a"><rect rx="12" width="24" height="24" fill="#fff" fill-opacity="0"/></clipPath></defs><rect rx="12" width="24" height="24" fill="#F3F4F6"/><g clip-path="url(#a)"><path d="M13.6 9.51H8.9c-.17 0-.32-.06-.44-.18a.622.622 0 0 1-.18-.43c0-.17.07-.33.18-.44.12-.12.27-.18.44-.18h6.19c.09 0 .17.01.24.05.15.06.27.18.33.33.04.07.05.15.05.24v6.19c0 .16-.06.32-.18.44-.11.11-.27.18-.44.18-.16 0-.32-.07-.43-.18a.62.62 0 0 1-.18-.44v-4.7l-5.14 5.14c-.06.06-.13.1-.2.14-.08.03-.16.04-.24.04-.08 0-.16-.01-.24-.04a.902.902 0 0 1-.2-.14.902.902 0 0 1-.14-.2.672.672 0 0 1-.04-.24c0-.08.01-.16.04-.24.04-.07.08-.14.14-.2l5.14-5.14z" fill="#525BBB"/></g></svg>