<svg width="24" height="24" fill="none" xmlns="http://www.w3.org/2000/svg"><defs><clipPath id="a"><path fill="#fff" fill-opacity="0" d="M0 0h24v24H0z"/></clipPath></defs><g clip-path="url(#a)"><path d="M18.484 7c.399 0 .785.164 1.07.469.141.148.255.32.333.515a1.746 1.746 0 0 1 0 1.235 1.752 1.752 0 0 1-.332.523l-6.512 6.781c-.14.157-.309.274-.496.352a1.37 1.37 0 0 1-.582.125c-.203 0-.399-.04-.586-.125a1.393 1.393 0 0 1-.492-.352l-6.438-6.78a1.751 1.751 0 0 1-.332-.524A1.749 1.749 0 0 1 4 8.602a1.623 1.623 0 0 1 .45-1.133 1.457 1.457 0 0 1 2.14 0l5.375 5.664 5.45-5.664A1.456 1.456 0 0 1 18.484 7z" clip-rule="evenodd" fill="#1F242E" fill-rule="evenodd"/></g></svg>