<svg width="32" height="32" fill="none" xmlns="http://www.w3.org/2000/svg"><defs><clipPath id="a"><rect rx="16" width="32" height="32" fill="#fff" fill-opacity="0"/></clipPath></defs><rect rx="16" width="32" height="32" fill="#F3F4F6"/><g clip-path="url(#a)"><path d="M18.44 13.02H12.8a.75.75 0 0 1-.75-.74.75.75 0 0 1 .75-.75h7.43c.1 0 .19.02.28.06a.746.746 0 0 1 .46.69v7.43c0 .2-.08.39-.22.53-.13.13-.32.21-.52.21s-.39-.08-.53-.21a.74.74 0 0 1-.21-.53v-5.64l-6.17 6.17a.776.776 0 0 1-.52.22.776.776 0 0 1-.53-.22.807.807 0 0 1-.17-.24.982.982 0 0 1-.05-.29c0-.1.02-.2.05-.29.04-.09.1-.17.17-.24l6.17-6.16z" fill="#1F242E"/></g></svg>