<svg width="24" height="24" fill="none" xmlns="http://www.w3.org/2000/svg"><defs><clipPath id="a"><path fill="#fff" fill-opacity="0" d="M0 0h24v24H0z"/></clipPath></defs><g clip-path="url(#a)"><path d="M15.534 4.449c.299.284.466.67.466 1.07s-.167.786-.466 1.07l-5.667 5.45 5.667 5.372c.299.284.466.67.466 1.07s-.167.786-.466 1.07a1.604 1.604 0 0 1-.52.332 1.678 1.678 0 0 1-1.232 0 1.604 1.604 0 0 1-.52-.332l-6.788-6.435c-.15-.141-.27-.31-.351-.494a1.453 1.453 0 0 1 .35-1.662l6.789-6.511c.148-.142.325-.255.52-.332a1.675 1.675 0 0 1 1.752.332z" clip-rule="evenodd" fill="#1F242E" fill-rule="evenodd"/></g></svg>