<svg width="16" height="16" fill="none" xmlns="http://www.w3.org/2000/svg"><defs><clipPath id="a"><path fill="#fff" fill-opacity="0" d="M0 0h16v16H0z"/></clipPath></defs><g clip-path="url(#a)"><path d="m8.94 8 4.2-4.2c.12-.12.19-.29.19-.47a.665.665 0 0 0-1.14-.47L8 7.06l-4.2-4.2a.634.634 0 0 0-.47-.2c-.18 0-.35.07-.47.2-.13.12-.2.29-.2.47s.07.35.2.47L7.06 8l-4.2 4.19c-.07.06-.12.13-.15.22-.03.08-.05.16-.05.25s.02.18.05.26c.03.08.08.15.15.21.06.07.13.12.21.15.08.04.17.05.26.05s.17-.01.25-.05c.09-.03.16-.08.22-.15L8 8.94l4.19 4.19c.06.07.13.12.22.15.08.04.16.05.25.05s.18-.01.26-.05c.08-.03.15-.08.22-.15.06-.06.11-.13.14-.21.04-.08.05-.17.05-.26s-.01-.17-.05-.25a.555.555 0 0 0-.14-.22L8.94 8z" fill="#1F242E"/></g></svg>