<svg width="16" height="16" fill="none" xmlns="http://www.w3.org/2000/svg"><defs><clipPath id="a"><path fill="#fff" fill-opacity="0" d="M0 0h16v16H0z"/></clipPath></defs><path fill="none" d="M0 0h16v16H0z"/><g clip-path="url(#a)"><path d="M8 1.33c-1.42 0-2.77.56-3.78 1.56-1 1-1.56 2.36-1.56 3.77 0 3.6 4.7 7.67 4.9 7.84.12.11.28.16.44.16.16 0 .31-.05.43-.16.23-.17 4.9-4.24 4.9-7.84 0-1.41-.56-2.77-1.56-3.77S9.41 1.33 8 1.33zM8 13.1c-1.42-1.34-4-4.21-4-6.44 0-1.06.42-2.08 1.17-2.83S6.94 2.66 8 2.66s2.07.42 2.82 1.17S12 5.6 12 6.66c0 2.23-2.58 5.11-4 6.44zM8 4c-.53 0-1.05.15-1.49.45-.43.29-.78.7-.98 1.19-.2.49-.25 1.02-.15 1.54s.36.99.73 1.37c.37.37.85.62 1.37.73.51.1 1.05.05 1.54-.15.48-.21.9-.55 1.19-.99.3-.44.45-.95.45-1.48A2.665 2.665 0 0 0 8 4zm0 4c-.27 0-.53-.08-.74-.23-.22-.15-.39-.35-.5-.6-.1-.24-.12-.51-.07-.77.05-.26.18-.49.36-.68.19-.19.43-.31.69-.37.25-.05.52-.02.77.08.24.1.45.27.59.49.15.22.23.48.23.74A1.333 1.333 0 0 1 8 8z" fill="#525BBB"/></g></svg>