<svg width="24" height="24" fill="none" xmlns="http://www.w3.org/2000/svg"><defs><clipPath id="a"><path fill="#fff" fill-opacity="0" d="M0 0h24v24H0z"/></clipPath></defs><g clip-path="url(#a)"><path d="M14.91 12.56c.78-.61 1.35-1.46 1.63-2.42.28-.95.26-1.98-.07-2.92-.32-.94-.94-1.76-1.75-2.34a4.83 4.83 0 0 0-5.56 0c-.82.58-1.43 1.4-1.75 2.34-.33.94-.35 1.97-.07 2.92.28.96.85 1.81 1.63 2.42a8.061 8.061 0 0 0-3.39 2.58A8.082 8.082 0 0 0 4 19.1a.8.8 0 0 0 .03.31.801.801 0 0 0 1.27.41c.17-.14.28-.33.3-.54.17-1.56.92-3.01 2.09-4.06a6.423 6.423 0 0 1 8.53 0 6.402 6.402 0 0 1 2.09 4.06c.02.2.12.38.27.51.14.13.33.2.53.2h.09c.21-.02.4-.13.53-.29.13-.17.19-.38.17-.59a8.037 8.037 0 0 0-1.59-3.97 8.091 8.091 0 0 0-3.4-2.58zM11.94 12c-.63 0-1.25-.19-1.78-.54-.52-.36-.93-.85-1.18-1.44-.24-.58-.3-1.23-.18-1.85.13-.62.43-1.19.88-1.63.44-.45 1.02-.76 1.64-.88.62-.12 1.26-.06 1.84.18.59.24 1.09.65 1.44 1.18.35.53.54 1.14.54 1.78a3.212 3.212 0 0 1-3.2 3.2z" fill="#FFF"/></g></svg>