<svg width="20" height="20" fill="none" xmlns="http://www.w3.org/2000/svg"><defs><clipPath id="a"><path fill="#fff" fill-opacity="0" d="M0 0h20v20H0z"/></clipPath></defs><g clip-path="url(#a)"><path d="M14.797 8.07a5 5 0 0 1-1.706 2.521 8.334 8.334 0 0 1 5.208 6.825.834.834 0 0 1-.733.917h-.092a.833.833 0 0 1-.833-.742 6.667 6.667 0 0 0-13.25 0 .84.84 0 0 1-1.667-.183 8.333 8.333 0 0 1 5.184-6.817 4.999 4.999 0 1 1 7.889-2.521zm-6.65 1.368a3.332 3.332 0 0 0 5.185-2.772 3.334 3.334 0 1 0-5.185 2.772z" clip-rule="evenodd" fill="#1F242E" fill-rule="evenodd"/></g></svg>