<svg width="32" height="32" fill="none" xmlns="http://www.w3.org/2000/svg"><defs><clipPath id="a"><path fill="#fff" fill-opacity="0" d="M0 0h32v32H0z"/></clipPath></defs><g clip-path="url(#a)"><circle cx="16" cy="16" r="16" fill="#FFF"/><path d="M21 16v-4h-2c-.08-.06-.17-.12-.25-.18-.25-.17-.52-.31-.81-.43-.28-.12-.57-.21-.87-.28-.35-.07-.71-.11-1.07-.11-.37 0-.73.04-1.08.11a5.193 5.193 0 0 0-1.68.71c-.28.19-.54.4-.78.64s-.45.5-.64.78a5.246 5.246 0 0 0-.71 1.68c-.08.35-.11.71-.11 1.08a4.8 4.8 0 0 0 .39 1.94c.12.29.26.56.43.81.19.28.4.54.64.78s.5.46.78.64c.26.17.53.31.81.43s.57.22.87.28a4.832 4.832 0 0 0 2.15 0c.3-.06.59-.16.87-.28.29-.12.56-.26.81-.43.28-.18.54-.4.78-.64.12.18.33.28.49.44.17.17.35.32.55.45.17.12.36.22.56.3a3.446 3.446 0 0 0 2.73 0c.2-.08.39-.18.57-.3.19-.13.37-.28.54-.45.17-.17.32-.35.45-.54a3.863 3.863 0 0 0 .5-1.18c.05-.25.08-.5.08-.75V16c0-.66-.07-1.3-.19-1.93-.09-.48-.23-.96-.39-1.43-.17-.48-.38-.94-.62-1.39-.28-.52-.61-1.02-.99-1.49a9.923 9.923 0 0 0-2.54-2.26c-.43-.27-.88-.5-1.33-.7-.55-.23-1.13-.42-1.72-.55-.62-.14-1.25-.23-1.87-.25-.51-.02-1.02 0-1.53.07-.5.05-.99.15-1.48.28-.57.16-1.13.37-1.68.64-.58.28-1.12.6-1.62.97a10.114 10.114 0 0 0-2.13 2.15c-.35.48-.66 1-.92 1.55a9.7 9.7 0 0 0-.66 1.77c-.13.49-.22.99-.28 1.51-.05.5-.07 1-.05 1.5.03.59.11 1.19.25 1.78.14.62.34 1.22.59 1.8.2.46.44.91.72 1.35.27.42.57.82.9 1.2.39.45.83.87 1.3 1.24.5.4 1.02.74 1.57 1.03.45.24.93.45 1.42.62.47.16.95.28 1.44.37.59.11 1.19.17 1.81.17v-2c-.5 0-1-.05-1.48-.14-.38-.07-.75-.17-1.12-.3a7.679 7.679 0 0 1-2.39-1.31c-.39-.31-.74-.65-1.06-1.02-.26-.29-.49-.61-.7-.94a6.82 6.82 0 0 1-.54-.99 7.76 7.76 0 0 1-.51-1.52c-.11-.49-.18-.97-.2-1.46-.01-.39 0-.78.04-1.17a8.047 8.047 0 0 1 .75-2.62c.22-.45.47-.87.76-1.27.23-.31.48-.61.76-.89.26-.27.54-.52.84-.74.43-.32.89-.6 1.38-.84.44-.22.9-.39 1.38-.52.37-.1.75-.17 1.14-.22.38-.04.76-.06 1.13-.05.53.01 1.07.08 1.6.2.48.11.95.26 1.4.46.35.15.7.33 1.03.54.32.2.63.42.92.66a8.003 8.003 0 0 1 1.92 2.37c.19.34.35.71.48 1.08.13.36.23.73.31 1.1.1.52.16 1.05.16 1.59v1.5c0 .12-.02.23-.04.35-.02.08-.05.15-.08.23-.04.08-.08.16-.12.23-.06.09-.13.17-.2.25-.08.07-.16.14-.25.2-.07.04-.15.09-.23.12-.08.03-.15.06-.23.08-.12.02-.23.04-.35.04-.12 0-.24-.02-.35-.04a2.25 2.25 0 0 1-.24-.08c-.08-.03-.15-.08-.23-.12-.09-.06-.17-.13-.24-.2-.08-.08-.15-.16-.21-.25-.04-.07-.08-.15-.12-.23-.03-.08-.05-.15-.07-.23-.03-.12-.04-.23-.04-.35V16zm-2 0a3.014 3.014 0 0 0-.24-1.17 2.928 2.928 0 0 0-.64-.95c-.15-.15-.31-.29-.49-.4-.15-.1-.3-.18-.47-.25-.16-.07-.32-.12-.48-.16-.22-.05-.45-.07-.68-.07a2.807 2.807 0 0 0-1.17.23c-.17.07-.32.15-.47.25a3.064 3.064 0 0 0-1.13 1.35A2.807 2.807 0 0 0 13 16a2.704 2.704 0 0 0 .23 1.16c.07.17.15.32.25.47.11.18.24.34.39.49.15.15.32.28.49.39.15.1.3.18.47.25A3.014 3.014 0 0 0 16 19c.23 0 .46-.03.68-.08.16-.04.32-.09.48-.16.17-.07.32-.15.47-.25.18-.11.34-.24.49-.39.15-.15.28-.31.39-.49.1-.15.18-.3.25-.47.07-.15.12-.32.16-.48.05-.22.08-.45.08-.68z" fill="#1F242E" fill-rule="evenodd"/></g></svg>