<svg width="32" height="32" fill="none" xmlns="http://www.w3.org/2000/svg"><defs><clipPath id="a"><rect rx="16" width="32" height="32" fill="#fff" fill-opacity="0"/></clipPath></defs><rect rx="16" width="32" height="32" fill="#FFF"/><g clip-path="url(#a)"><path d="M16.26 21.1c.18-.06.28-.22.28-.41V18.5h.01c.01-.03.02-.05.03-.07.04-.09.11-.15.23-.2.09-.03.18-.04.27-.03.71.09 1.34.68 1.97 1.26.1.09.2.19.3.28.13.13.25.27.38.4.55.6 1.06 1.15 1.54 1.12h2.16c.08 0 .16-.01.23-.03 1.25-.41-.73-2.38-2.03-3.67-.28-.28-.52-.52-.7-.71-.19-.21-.17-.49-.01-.71.11-.17.24-.34.36-.51.86-1.21 1.93-2.7 2.35-3.89.05-.14.06-.3.01-.44-.11-.27-.35-.27-1.54-.27h-.39c-.78 0-1.01 0-1.21.13-.16.11-.27.34-.45.72-.15.31-.35.72-.66 1.25-1.31 2.23-2.08 2.86-2.56 2.84-.07-.01-.15-.03-.2-.09a.342.342 0 0 1-.09-.17v-4.1c.01-.55-.05-.61-1.37-.61h-2.18c-.61 0-.87.45-.44.87.29.28.55.64.55 1.2 0 .83.02 3.09.02 3.48 0 .04 0 .08-.02.11-.23.56-1.51-.54-2.93-3.36-.7-1.38-.71-1.94-1-2.16-.23-.18-.64-.14-1.73-.14-1.47 0-1.46.2-1.44.63 0 .05.01.11.01.17.42 1.61 1.11 3.03 1.83 4.26 2.34 3.97 5.97 5.85 8.42 5.04z" fill="#13161C" fill-rule="evenodd"/></g></svg>