<svg width="32" height="32" fill="none" xmlns="http://www.w3.org/2000/svg"><defs><clipPath id="a"><rect rx="16" width="32" height="32" fill="#fff" fill-opacity="0"/></clipPath></defs><rect rx="16" width="32" height="32" fill="#FFF"/><g clip-path="url(#a)"><path d="M32 16.17v-.35c-7.09-.22-10.32-.4-12.92-2.91-2.51-2.59-2.7-5.83-2.91-12.91h-.35c-.22 7.08-.4 10.32-2.91 12.91-2.6 2.51-5.83 2.7-12.91 2.91v.35c7.08.23 10.31.4 12.91 2.91 2.51 2.6 2.7 5.83 2.91 12.92h.35c.23-7.09.4-10.32 2.91-12.92 2.6-2.51 5.83-2.7 12.92-2.91z" fill="#1F242E"/></g></svg>