<svg width="32" height="32" fill="none" xmlns="http://www.w3.org/2000/svg"><defs><clipPath id="b"><path transform="translate(6 6)" fill="#fff" fill-opacity="0" d="M0 0h20v20H0z"/></clipPath><clipPath id="a"><path fill="#fff" fill-opacity="0" d="M0 0h32v32H0z"/></clipPath></defs><g clip-path="url(#a)"><circle cx="16" cy="16" r="16" fill="#525BBB"/><g clip-path="url(#b)"><path d="M23.63 8.06c-.2-.04-.42-.06-.63-.06H9c-.22 0-.44.02-.64.06-.18.04-.36.1-.53.17-.18.07-.34.16-.49.26-.17.11-.32.24-.47.38-.14.15-.27.3-.38.47-.1.15-.19.31-.26.49-.07.17-.13.35-.17.53-.04.2-.06.42-.06.64v10c0 .21.02.43.06.63.04.18.1.36.17.53.07.18.16.34.26.49.11.17.24.32.38.47.15.14.3.27.47.38.15.1.31.19.49.26.17.07.35.13.53.17.2.04.42.07.64.07h14c.21 0 .43-.03.63-.07.18-.04.36-.1.53-.17.18-.07.34-.16.49-.26.17-.11.32-.24.47-.38.14-.15.27-.3.38-.47.1-.15.19-.31.26-.49.07-.17.13-.35.17-.53.04-.2.07-.42.07-.63V11c0-.22-.03-.44-.07-.64-.04-.18-.1-.36-.17-.53-.07-.18-.16-.34-.26-.49-.11-.17-.24-.32-.38-.47-.15-.14-.3-.27-.47-.38-.15-.1-.31-.19-.49-.26-.17-.07-.35-.13-.53-.17zM9.41 10l5.88 5.87c.06.06.12.11.19.15.04.03.09.05.14.07.05.02.1.04.16.05a.78.78 0 0 0 .43 0c.06-.01.11-.03.16-.05.05-.02.1-.04.14-.07.07-.04.13-.09.19-.15L22.58 10H9.41zM8 11.41l5.87 5.88a3.133 3.133 0 0 0 1 .66c.17.07.35.12.53.16.19.04.39.06.6.06.2 0 .4-.02.59-.06a2.96 2.96 0 0 0 1.03-.42c.18-.11.34-.25.5-.4L24 11.41V21c0 .08-.01.16-.03.24-.02.05-.03.1-.05.14-.03.06-.05.11-.08.15a1.151 1.151 0 0 1-.31.31c-.04.03-.09.05-.15.08-.04.02-.09.03-.14.05-.08.02-.16.03-.24.03H9c-.09 0-.17-.01-.25-.03-.05-.02-.1-.03-.14-.05-.06-.03-.11-.05-.15-.08a1.151 1.151 0 0 1-.31-.31c-.03-.04-.05-.09-.08-.15-.02-.04-.03-.09-.05-.14C8 21.16 8 21.08 8 21v-9.59z" fill="#FFF" fill-rule="evenodd"/></g></g></svg>