<svg width="32" height="32" fill="none" xmlns="http://www.w3.org/2000/svg"><defs><clipPath id="b"><path transform="translate(6 6)" fill="#fff" fill-opacity="0" d="M0 0h20v20H0z"/></clipPath><clipPath id="a"><path fill="#fff" fill-opacity="0" d="M0 0h32v32H0z"/></clipPath></defs><g clip-path="url(#a)"><circle cx="16" cy="16" r="16" fill="#FFF"/><g clip-path="url(#b)"><path d="M19.45 7.65C18.39 7.21 17.24 7 16 7c-1.25 0-2.4.21-3.46.65-1.06.44-2.03 1.1-2.91 1.98-.88.88-1.54 1.85-1.98 2.91C7.21 13.6 7 14.75 7 16c0 1.01.15 1.97.46 2.88.23.7.56 1.37.97 2L7.1 23.55c-.12.24-.14.5-.05.76.08.26.25.46.5.58.07.03.14.06.22.08.07.02.15.03.23.03h8c1.24 0 2.39-.22 3.45-.66 1.06-.44 2.03-1.1 2.91-1.98.88-.88 1.54-1.85 1.98-2.91.44-1.06.66-2.21.66-3.45 0-1.25-.22-2.4-.66-3.46-.44-1.06-1.1-2.03-1.98-2.91-.88-.88-1.85-1.54-2.91-1.98zm-6.14 1.86C14.13 9.17 15.03 9 16 9c.96 0 1.86.17 2.68.51.83.34 1.58.85 2.26 1.54.69.68 1.2 1.43 1.54 2.26.34.82.52 1.72.52 2.69 0 .96-.18 1.86-.52 2.68-.34.83-.85 1.58-1.54 2.26-.68.69-1.43 1.2-2.26 1.54-.82.34-1.72.52-2.68.52H9.61l.88-1.76c.08-.17.12-.35.1-.53-.02-.19-.08-.36-.2-.52-.45-.61-.8-1.26-1.03-1.94C9.12 17.54 9 16.79 9 16c0-.97.17-1.87.51-2.69.34-.83.85-1.58 1.54-2.26.68-.69 1.43-1.2 2.26-1.54z" fill="#1F242E" fill-rule="evenodd"/></g></g></svg>