<svg width="32" height="32" fill="none" xmlns="http://www.w3.org/2000/svg"><defs><clipPath id="a"><path fill="#fff" fill-opacity="0" d="M0 0h32v32H0z"/></clipPath></defs><g clip-path="url(#a)"><circle cx="16" cy="16" r="16" fill="#FFF"/><path d="M4 14c0-4.426 3.574-8 8-8a7.998 7.998 0 0 1 7.237 4.583 8.622 8.622 0 0 1 1.331.069c4.181.54 7.254 4.044 6.95 8.037a7.12 7.12 0 0 1-1.115 3.324l.596 3.224a.719.719 0 0 1-.265.694.837.837 0 0 1-.772.138l-3.303-1.045a8.435 8.435 0 0 1-3.684.538c-2.118-.16-3.984-1.08-5.317-2.451a7.719 7.719 0 0 1-.919-1.145 8 8 0 0 1-4.372-.835l-3.373.845a.8.8 0 0 1-.97-.968l.838-3.382A8 8 0 0 1 4 14zm8-6.4A6.39 6.39 0 0 0 5.6 14c0 1.134.292 2.207.81 3.128a.8.8 0 0 1 .079.584l-.592 2.389 2.38-.597a.8.8 0 0 1 .587.078A6.398 6.398 0 0 0 12 20.4a6.4 6.4 0 0 0 6.4-6.4c0-3.542-2.865-6.4-6.4-6.4zm-2.495 4.951c.23.116.501.146.756.085a.992.992 0 0 0 .604-.414.972.972 0 0 1 .483-.381c.204-.076.431-.09.645-.04.214.052.403.164.537.32a.826.826 0 0 1 .205.546.842.842 0 0 1-.293.628c-.188.167-.442.26-.707.26-.265 0-.52.094-.707.26a.842.842 0 0 0-.293.63c0 .235.105.461.293.628.187.167.441.26.707.26.526 0 1.043-.123 1.5-.358A2.856 2.856 0 0 0 14.33 14c.264-.406.402-.865.402-1.333 0-.468-.14-.928-.403-1.333a2.856 2.856 0 0 0-1.098-.976 3.295 3.295 0 0 0-1.5-.357c-.526 0-1.043.123-1.5.357-.455.234-.834.571-1.097.976a.792.792 0 0 0-.1.677c.034.114.093.22.174.313.08.092.181.17.296.228zm4.911 9.077c1.074 1.358 2.743 2.292 4.672 2.438a6.733 6.733 0 0 0 3.185-.527.847.847 0 0 1 .59-.029l.172.054 1.721.545.44.139-.103-.551-.319-1.726a.709.709 0 0 1 .12-.54 5.696 5.696 0 0 0 1.03-2.864c.25-3.31-2.396-6.199-5.928-6.466a7.147 7.147 0 0 0-.226-.014 8.004 8.004 0 0 1-5.354 9.541zm-2.881-5.406c.196-.03.398-.01.58.063.24.095.432.275.54.488a.679.679 0 0 1 .08.338.842.842 0 0 1-.293.629c-.188.166-.442.26-.707.26-.132 0-.262-.022-.384-.066a1.017 1.017 0 0 1-.326-.192.893.893 0 0 1-.22-.284.8.8 0 0 1-.07-.347.677.677 0 0 1 .08-.355.883.883 0 0 1 .21-.285l.15-.115.18-.08.18-.054z" clip-rule="evenodd" fill="#1F242E" fill-rule="evenodd"/></g></svg>