<svg width="32" height="32" fill="none" xmlns="http://www.w3.org/2000/svg"><defs><clipPath id="a"><path fill="#fff" fill-opacity="0" d="M0 0h32v32H0z"/></clipPath></defs><g clip-path="url(#a)"><circle cx="16" cy="16" r="16" fill="#CC0406"/><path d="M4 14c0-4.426 3.574-8 8-8a7.997 7.997 0 0 1 7.237 4.583 8.661 8.661 0 0 1 1.33.069c4.181.54 7.254 4.044 6.95 8.036a7.116 7.116 0 0 1-1.116 3.325l.597 3.224a.72.72 0 0 1-.265.694.837.837 0 0 1-.772.138l-3.303-1.045a8.438 8.438 0 0 1-3.684.538c-2.118-.16-3.984-1.08-5.317-2.451a7.693 7.693 0 0 1-.92-1.145 8.002 8.002 0 0 1-4.37-.835l-3.372.845a.801.801 0 0 1-.972-.968l.839-3.382A7.999 7.999 0 0 1 4 14zm8-6.4A6.39 6.39 0 0 0 5.6 14c0 1.134.293 2.207.81 3.128.1.178.128.387.079.584l-.593 2.389 2.382-.597a.8.8 0 0 1 .586.078A6.398 6.398 0 0 0 12 20.4a6.4 6.4 0 0 0 6.4-6.4c0-3.542-2.865-6.4-6.4-6.4zm-2.495 4.951c.23.116.501.146.756.085a.992.992 0 0 0 .604-.414.97.97 0 0 1 .483-.381c.204-.076.431-.09.645-.04.214.052.402.164.537.32a.827.827 0 0 1 .205.546.842.842 0 0 1-.293.628c-.188.167-.442.26-.707.26-.266 0-.52.094-.708.26a.841.841 0 0 0-.292.63c0 .235.105.461.292.628.188.167.442.26.708.26.526 0 1.043-.123 1.5-.358A2.858 2.858 0 0 0 14.331 14c.262-.406.4-.866.4-1.333 0-.468-.138-.928-.402-1.333a2.855 2.855 0 0 0-1.098-.976 3.294 3.294 0 0 0-1.5-.357c-.526 0-1.043.123-1.5.357-.456.234-.834.571-1.097.976a.791.791 0 0 0-.1.677c.034.114.093.22.174.313.08.092.181.17.296.228zm4.91 9.078c1.074 1.357 2.743 2.29 4.672 2.437a6.73 6.73 0 0 0 3.185-.527.848.848 0 0 1 .59-.029l.172.054 1.72.545.44.139-.102-.551-.32-1.726a.708.708 0 0 1 .122-.54 5.702 5.702 0 0 0 1.028-2.864c.251-3.31-2.396-6.199-5.927-6.466a7.192 7.192 0 0 0-.225-.014 8.004 8.004 0 0 1-5.355 9.542zm-2.88-5.407c.196-.03.398-.01.58.063.24.095.432.275.54.488a.676.676 0 0 1 .08.338.842.842 0 0 1-.293.629c-.188.166-.442.26-.707.26-.132 0-.262-.022-.384-.066a1.013 1.013 0 0 1-.326-.192.89.89 0 0 1-.22-.284.805.805 0 0 1-.07-.347.675.675 0 0 1 .08-.355.891.891 0 0 1 .21-.285l.15-.115.18-.08.18-.054z" clip-rule="evenodd" fill="#FFF" fill-rule="evenodd"/></g></svg>