<svg width="32" height="32" fill="none" xmlns="http://www.w3.org/2000/svg"><defs><clipPath id="b"><path transform="translate(6 6)" fill="#fff" fill-opacity="0" d="M0 0h20v20H0z"/></clipPath><clipPath id="a"><path fill="#fff" fill-opacity="0" d="M0 0h32v32H0z"/></clipPath></defs><g clip-path="url(#a)"><circle cx="16" cy="16" r="16" fill="#FFF"/><g clip-path="url(#b)"><path d="M16 6C10.46 6 6 10.46 6 16c0 1.61.38 3.16 1.07 4.53l-1.05 4.22a1 1 0 0 0 .27.95c.25.25.61.35.95.27l4.21-1.06C12.82 25.6 14.36 26 16 26c5.52 0 10-4.48 10-10 0-5.54-4.48-10-10-10zM8 16c0-4.43 3.57-8 8-8 4.41 0 8 3.57 8 8 0 4.41-3.59 8-8 8a8.02 8.02 0 0 1-3.93-1.03.974.974 0 0 0-.73-.09l-2.97.74.74-2.98c.06-.25.02-.51-.1-.73A7.985 7.985 0 0 1 8 16zm5.21-4.35c.17 0 .35.01.52.4.21.45.66 1.6.72 1.71.06.12.1.25.02.41-.08.15-.12.25-.23.38-.12.14-.25.3-.35.41-.12.11-.24.24-.1.47.13.23.6.98 1.29 1.6.88.78 1.62 1.03 1.85 1.14.24.12.38.1.52-.06.13-.16.57-.67.73-.91.15-.22.31-.18.52-.11.21.08 1.34.64 1.59.75.23.11.38.18.44.27.06.09.06.56-.13 1.09-.2.55-1.15 1.07-1.57 1.11-.05 0-.09 0-.13.01-.39.05-.88.1-2.65-.59-2.36-.92-3.85-3.33-3.97-3.48-.11-.16-.94-1.26-.94-2.39 0-1.14.6-1.7.81-1.93a.85.85 0 0 1 .62-.29c.15 0 .31 0 .44.01z" fill="#1F242E" fill-rule="evenodd"/></g></g></svg>