<svg width="32" height="32" fill="none" xmlns="http://www.w3.org/2000/svg"><defs><clipPath id="a"><path fill="#fff" fill-opacity="0" d="M0 0h32v32H0z"/></clipPath></defs><g clip-path="url(#a)"><circle cx="16" cy="16" r="16" fill="#FFF"/><path d="M7.24 15.83c4.66-2.04 7.77-3.38 9.33-4.02 4.44-1.85 5.36-2.17 5.97-2.18.13-.01.43.03.62.18.16.13.2.31.22.44.03.12.05.4.03.63-.24 2.53-1.28 8.67-1.81 11.5-.23 1.2-.67 1.6-1.09 1.64-.93.09-1.64-.61-2.54-1.2-1.41-.93-2.2-1.5-3.57-2.4-1.58-1.04-.56-1.62.34-2.55.24-.25 4.33-3.97 4.41-4.31.01-.04.02-.2-.07-.28-.09-.08-.23-.05-.33-.03-.14.03-2.39 1.52-6.75 4.46-.64.44-1.22.65-1.74.64-.57-.01-1.67-.32-2.48-.59-1.01-.32-1.8-.5-1.73-1.05.03-.29.43-.58 1.19-.88z" fill="#1F242E" fill-rule="evenodd"/></g></svg>