<svg width="32" height="32" fill="none" xmlns="http://www.w3.org/2000/svg"><defs><clipPath id="a"><path fill="#fff" fill-opacity="0" d="M0 0h32v32H0z"/></clipPath></defs><g clip-path="url(#a)"><path d="M.13 15.85c0 2.8.73 5.52 2.13 7.93L0 32l8.44-2.21c2.33 1.26 4.95 1.93 7.62 1.93 8.78 0 15.93-7.11 15.94-15.86 0-4.23-1.66-8.22-4.67-11.21C24.32 1.65 20.32 0 16.06 0 7.28 0 .13 7.11.13 15.85z" fill="#FFF"/><path d="M11.94 8.98c-.31-.68-.63-.7-.93-.71-.24-.01-.51-.01-.79-.01-.27 0-.72.1-1.1.51-.38.41-1.44 1.41-1.44 3.43 0 2.02 1.48 3.97 1.68 4.24.21.28 2.86 4.55 7.05 6.2 3.48 1.37 4.19 1.1 4.95 1.03.75-.07 2.44-1 2.78-1.95.34-.96.34-1.78.24-1.96-.1-.17-.38-.27-.79-.48-.41-.2-2.44-1.19-2.82-1.33-.38-.14-.65-.21-.93.2-.27.42-1.06 1.34-1.3 1.61-.24.28-.48.31-.9.11-.41-.21-1.74-.64-3.31-2.04-1.23-1.09-2.06-2.43-2.3-2.84-.24-.41-.02-.64.18-.84.19-.19.42-.48.62-.72.21-.24.28-.41.41-.68.14-.28.07-.52-.03-.72-.1-.21-.9-2.24-1.27-3.05z" fill="#1F242E" fill-rule="evenodd"/></g></svg>